<?xml version="1.0" standalone="no"?>
<!DOCTYPE svg PUBLIC "-//W3C//DTD SVG 20010904//EN"
 "http://www.w3.org/TR/2001/REC-SVG-20010904/DTD/svg10.dtd">
<svg version="1.0" xmlns="http://www.w3.org/2000/svg"
 width="700.000000pt" height="700.000000pt" viewBox="0 0 700.000000 700.000000"
 preserveAspectRatio="xMidYMid meet">
<metadata>
Created by potrace 1.14, written by Peter Selinger 2001-2017
</metadata>
<g transform="translate(0.000000,700.000000) scale(0.100000,-0.100000)"
fill="#000000" stroke="none">
<path d="M856 6268 c38 -40 74 -78 79 -84 6 -6 67 -71 136 -145 70 -74 141
-150 159 -169 18 -19 85 -91 149 -159 157 -167 179 -191 306 -327 61 -65 131
-140 156 -166 76 -78 75 -77 32 -68 -21 5 -58 11 -83 15 -25 3 -74 11 -110 17
-36 5 -74 12 -85 13 -139 22 -293 46 -305 50 -8 2 -40 7 -70 10 -30 4 -57 8
-60 10 -3 1 -32 6 -65 10 -32 3 -62 8 -65 10 -4 2 -29 7 -56 10 -27 4 -56 8
-64 10 -8 2 -33 7 -55 10 -23 3 -50 7 -61 9 -63 12 -128 17 -119 8 6 -5 73
-56 150 -113 77 -57 142 -106 145 -109 3 -3 57 -43 120 -90 63 -47 117 -87
120 -90 3 -3 21 -17 40 -30 19 -13 40 -29 46 -35 6 -5 78 -59 160 -120 82 -60
151 -112 154 -115 3 -3 66 -50 140 -105 74 -55 140 -103 145 -107 28 -23 364
-275 429 -323 23 -16 46 -34 52 -40 6 -5 22 -17 34 -25 29 -20 64 -50 59 -51
-2 0 -11 -2 -19 -3 -17 -4 -105 -15 -170 -22 -25 -2 -74 -9 -110 -14 -103 -14
-164 -22 -271 -34 -31 -4 -67 -9 -79 -11 -12 -2 -47 -7 -78 -10 -31 -3 -66 -8
-77 -10 -11 -2 -32 -4 -47 -4 -53 -2 -27 -16 90 -50 119 -35 155 -46 317 -96
50 -15 104 -31 120 -36 17 -4 59 -16 95 -27 151 -47 411 -125 490 -148 47 -14
112 -34 146 -45 33 -11 69 -21 80 -24 10 -2 80 -23 154 -45 74 -23 155 -48
180 -55 159 -47 200 -61 200 -68 0 -4 -45 -52 -100 -106 -55 -54 -100 -100
-100 -103 0 -3 17 -2 38 3 20 4 53 11 72 14 35 6 188 34 225 41 31 6 184 34
245 44 59 11 90 17 130 25 43 9 73 14 115 20 22 3 47 8 55 10 13 4 343 66 435
82 17 2 49 8 72 13 48 8 46 15 22 -80 -7 -29 -25 -114 -55 -255 -2 -11 -6 -31
-9 -45 -3 -14 -8 -36 -11 -50 -2 -14 -9 -43 -14 -65 -5 -22 -19 -87 -31 -145
-21 -101 -23 -107 -69 -150 -44 -42 -187 -173 -234 -213 -12 -10 -39 -35 -61
-56 -22 -21 -97 -89 -166 -152 -140 -126 -77 -90 -719 -417 -80 -40 -200 -102
-267 -136 l-122 -63 -33 22 c-85 57 -183 115 -195 115 -7 0 -29 -15 -48 -33
-30 -29 -39 -49 -80 -202 -25 -93 -50 -181 -55 -195 -4 -14 -25 -86 -45 -160
-20 -74 -45 -164 -56 -199 -25 -83 -25 -84 13 -75 37 8 37 8 181 187 l102 127
290 192 c297 196 361 234 405 242 14 2 59 14 100 26 41 12 105 30 143 41 37
10 97 28 135 38 37 11 150 43 252 71 102 29 214 60 249 71 35 10 66 19 70 19
3 0 -34 -23 -84 -52 -49 -28 -214 -124 -365 -212 l-275 -159 -120 2 -120 2
-28 -88 c-42 -127 -177 -606 -173 -610 1 -2 25 6 52 17 43 18 56 31 102 103
101 157 226 318 262 338 33 18 281 137 415 199 33 15 143 68 245 117 l186 90
269 324 c148 178 271 326 274 329 39 34 106 149 241 415 263 517 315 618 343
662 15 24 27 45 27 49 0 3 8 18 19 32 10 15 35 59 56 97 21 39 45 78 54 89 9
10 14 19 12 20 -3 0 8 22 23 49 l28 47 -5 193 c-2 105 -7 206 -11 222 -3 17
-8 39 -10 50 -3 11 -8 47 -11 80 -5 41 -26 105 -67 200 l-61 140 59 114 59
114 68 36 c37 20 67 39 67 43 0 4 -18 33 -40 64 -22 32 -40 62 -40 68 0 6 16
24 36 40 l36 29 -73 28 c-41 16 -87 41 -104 57 -86 80 -274 232 -286 232 -35
-1 -403 -110 -410 -122 -5 -7 -9 -29 -10 -48 -1 -19 -3 -44 -4 -55 -1 -11 -5
-47 -9 -80 -15 -133 -17 -151 -22 -187 -5 -37 -5 -38 112 -129 l116 -92 -23
-19 c-13 -10 -44 -33 -67 -49 l-44 -31 -31 28 c-17 16 -36 34 -42 40 -5 5 -46
41 -89 80 -44 38 -87 76 -96 84 -59 54 -136 124 -380 340 -151 135 -293 260
-314 280 -54 49 -51 46 -151 135 -97 87 -97 86 40 -91 38 -50 79 -103 90 -119
11 -15 25 -32 30 -39 6 -6 24 -29 40 -51 17 -22 35 -46 42 -55 97 -121 130
-168 116 -163 -9 4 -57 33 -107 64 -50 32 -122 77 -161 101 -38 23 -71 46 -73
50 -2 5 -7 8 -12 8 -4 0 -84 48 -176 107 -93 58 -187 117 -209 130 -22 13 -80
49 -130 81 -137 88 -482 305 -513 323 -15 9 -184 115 -377 236 -415 260 -379
238 -373 227 3 -5 35 -63 70 -129 63 -116 100 -186 196 -365 25 -47 48 -89 52
-95 4 -5 33 -59 65 -120 120 -228 115 -221 159 -234 17 -5 136 -48 265 -95
129 -47 236 -85 237 -83 1 1 -38 85 -88 187 -49 102 -94 196 -99 209 l-10 24
33 -25 c18 -13 157 -109 308 -213 151 -104 277 -192 280 -196 3 -4 19 -15 37
-25 18 -11 76 -50 130 -88 54 -38 154 -108 223 -154 69 -47 190 -131 270 -186
80 -56 164 -114 188 -130 23 -16 42 -31 42 -33 0 -2 -3 -2 -7 0 -153 92 -355
214 -378 227 -16 10 -66 39 -110 65 -44 26 -93 56 -110 65 -16 10 -180 108
-363 218 -183 110 -327 192 -320 183 12 -16 125 -153 262 -319 l69 -83 -1374
688 c-756 378 -1387 694 -1403 701 -24 10 -16 -2 40 -60z"/>
</g>
</svg>
